M48
; DRILL file {KiCad 9.0.0} date 2026-09-28T23:16:49-0500
; FORMAT={-:-/ absolute / metric / decimal}
; #@! TF.CreationDate,2026-09-28T23:16:49-05:00
; #@! TF.GenerationSoftware,Kicad,Pcbnew,9.0.0
; #@! TF.FileFunction,Plated,1,2,PTH
FMAT,2
METRIC
; #@! TA.AperFunction,Plated,PTH,ViaDrill
T1C0.300
; #@! TA.AperFunction,Plated,PTH,ComponentDrill
T2C1.000
%
G90
G05
T1
X11.125Y-21.125
X12.875Y-8.0
X13.125Y-19.375
X15.875Y-23.75
X18.875Y-19.125
X19.75Y-17.375
X22.25Y-16.0
X22.5Y-23.125
X26.0Y-22.25
X26.75Y-17.0
X28.5Y-22.25
X33.5Y-25.25
X34.875Y-23.75
X40.5Y-24.75
X41.25Y-15.5
X44.0Y-15.25
X45.0Y-18.625
X45.75Y-16.5
X46.0Y-27.75
X46.375Y-22.0
X47.5Y-9.25
X48.375Y-14.0
X51.625Y-37.0
X51.875Y-13.875
X54.5Y-9.25
T2
X7.75Y-22.5
X12.85Y-22.5
X13.0Y-4.0
X13.0Y-6.54
X17.0Y-4.0
X17.0Y-6.54
X21.0Y-4.0
X21.0Y-6.54
X49.0Y-24.0
X49.0Y-26.54
X57.0Y-16.0
X57.0Y-18.54
X57.0Y-21.08
X57.0Y-23.62
X57.0Y-26.16
X57.0Y-28.7
M30
