%TF.GenerationSoftware,KiCad,Pcbnew,9.0.0*%
%TF.CreationDate,2026-09-28T23:16:49-05:00*%
%TF.ProjectId,photodiode-tia-esp32,70686f74-6f64-4696-9f64-652d7469612d,rev?*%
%TF.SameCoordinates,Original*%
%TF.FileFunction,Copper,L2,Bot*%
%TF.FilePolarity,Positive*%
%FSLAX46Y46*%
G04 Gerber Fmt 4.6, Leading zero omitted, Abs format (unit mm)*
G04 Created by KiCad (PCBNEW 9.0.0) date 2026-09-28 23:16:49*
%MOMM*%
%LPD*%
G01*
G04 APERTURE LIST*
%TA.AperFunction,ComponentPad*%
%ADD10R,1.700000X1.700000*%
%TD*%
%TA.AperFunction,ComponentPad*%
%ADD11O,1.700000X1.700000*%
%TD*%
%TA.AperFunction,ComponentPad*%
%ADD12R,1.800000X2.200000*%
%TD*%
%TA.AperFunction,ComponentPad*%
%ADD13O,1.800000X2.200000*%
%TD*%
%TA.AperFunction,ViaPad*%
%ADD14C,0.600000*%
%TD*%
%TA.AperFunction,Conductor*%
%ADD15C,0.250000*%
%TD*%
G04 APERTURE END LIST*
D10*
%TO.P,JP4,1*%
%TO.N,/GAIN_1M*%
X21000000Y-4000000D03*
D11*
%TO.P,JP4,2*%
%TO.N,/TIA_OUT*%
X21000000Y-6540000D03*
%TD*%
D10*
%TO.P,JP1,1*%
%TO.N,/ADC_OUT*%
X49000000Y-24000000D03*
D11*
%TO.P,JP1,2*%
%TO.N,/ADC_LINK*%
X49000000Y-26540000D03*
%TD*%
D10*
%TO.P,J1,1*%
%TO.N,/VBUS_5V*%
X57000000Y-16000000D03*
D11*
%TO.P,J1,2*%
%TO.N,/GND*%
X57000000Y-18540000D03*
%TO.P,J1,3*%
%TO.N,/3V3D*%
X57000000Y-21080000D03*
%TO.P,J1,4*%
%TO.N,/GND*%
X57000000Y-23620000D03*
%TO.P,J1,5*%
%TO.N,/ADC_LINK*%
X57000000Y-26160000D03*
%TO.P,J1,6*%
%TO.N,/GND*%
X57000000Y-28700000D03*
%TD*%
D12*
%TO.P,D1,1*%
%TO.N,/3V3A*%
X7750000Y-22500000D03*
D13*
%TO.P,D1,2*%
%TO.N,/SUM*%
X12850000Y-22500000D03*
%TD*%
D10*
%TO.P,JP3,1*%
%TO.N,/GAIN_100K*%
X17000000Y-4000000D03*
D11*
%TO.P,JP3,2*%
%TO.N,/TIA_OUT*%
X17000000Y-6540000D03*
%TD*%
D10*
%TO.P,JP2,1*%
%TO.N,/GAIN_10K*%
X13000000Y-4000000D03*
D11*
%TO.P,JP2,2*%
%TO.N,/TIA_OUT*%
X13000000Y-6540000D03*
%TD*%
D14*
%TO.N,/3V3A*%
X11125000Y-21125000D03*
X51875000Y-13875000D03*
X19750000Y-17375000D03*
X44000000Y-15250000D03*
X18875000Y-19125000D03*
%TO.N,/TIA_OUT*%
X12875000Y-8000000D03*
%TO.N,/GND*%
X41250000Y-15500000D03*
X40500000Y-24750000D03*
X26000000Y-22250000D03*
X54500000Y-9250000D03*
X15875000Y-23750000D03*
X22500000Y-23125000D03*
X26750000Y-17000000D03*
X33500000Y-25250000D03*
X47500000Y-9250000D03*
X28500000Y-22250000D03*
X34875000Y-23750000D03*
X46000000Y-27750000D03*
X45750000Y-16500000D03*
X51625000Y-37000000D03*
X48375000Y-14000000D03*
X22250000Y-16000000D03*
X45000000Y-18625000D03*
%TO.N,/GAIN_1M*%
X13125000Y-19375000D03*
%TO.N,/3V3D*%
X46375000Y-22000000D03*
%TD*%
D15*
%TO.N,/3V3A*%
X51875000Y-13875000D02*
X50625000Y-15125000D01*
X19750000Y-17375000D02*
X19750000Y-18250000D01*
X19750000Y-18250000D02*
X18875000Y-19125000D01*
X11375000Y-20875000D02*
X12000000Y-20875000D01*
X17250000Y-20750000D02*
X18875000Y-19125000D01*
X48500000Y-15125000D02*
X48375000Y-15250000D01*
X50625000Y-15125000D02*
X48500000Y-15125000D01*
X11125000Y-21125000D02*
X11375000Y-20875000D01*
X48375000Y-15250000D02*
X44000000Y-15250000D01*
X12125000Y-20750000D02*
X17250000Y-20750000D01*
X12000000Y-20875000D02*
X12125000Y-20750000D01*
%TO.N,/TIA_OUT*%
X12875000Y-8000000D02*
X15500000Y-8000000D01*
X15500000Y-8000000D02*
X17000000Y-6500000D01*
%TO.N,/GAIN_1M*%
X19625000Y-12875000D02*
X19625000Y-5125000D01*
X20750000Y-4000000D02*
X21000000Y-4000000D01*
X13125000Y-19375000D02*
X19625000Y-12875000D01*
X19625000Y-5125000D02*
X20750000Y-4000000D01*
%TO.N,/3V3D*%
X46375000Y-22000000D02*
X47250000Y-21125000D01*
X47250000Y-21125000D02*
X57000000Y-21125000D01*
%TD*%
%TA.AperFunction,Conductor*%
%TO.N,/GND*%
G36*
X59442539Y-520185D02*
G01*
X59488294Y-572989D01*
X59499500Y-624500D01*
X59499500Y-44375500D01*
X59479815Y-44442539D01*
X59427011Y-44488294D01*
X59375500Y-44499500D01*
X624500Y-44499500D01*
X557461Y-44479815D01*
X511706Y-44427011D01*
X500500Y-44375500D01*
X500500Y-41878711D01*
X2149500Y-41878711D01*
X2149500Y-42121288D01*
X2181161Y-42361785D01*
X2243947Y-42596104D01*
X2336773Y-42820205D01*
X2336776Y-42820212D01*
X2458064Y-43030289D01*
X2458066Y-43030292D01*
X2458067Y-43030293D01*
X2605733Y-43222736D01*
X2605739Y-43222743D01*
X2777256Y-43394260D01*
X2777262Y-43394265D01*
X2969711Y-43541936D01*
X3179788Y-43663224D01*
X3403900Y-43756054D01*
X3638211Y-43818838D01*
X3818586Y-43842584D01*
X3878711Y-43850500D01*
X3878712Y-43850500D01*
X4121289Y-43850500D01*
X4169388Y-43844167D01*
X4361789Y-43818838D01*
X4596100Y-43756054D01*
X4820212Y-43663224D01*
X5030289Y-43541936D01*
X5222738Y-43394265D01*
X5394265Y-43222738D01*
X5541936Y-43030289D01*
X5663224Y-42820212D01*
X5756054Y-42596100D01*
X5818838Y-42361789D01*
X5850500Y-42121288D01*
X5850500Y-41878712D01*
X5850500Y-41878711D01*
X54149500Y-41878711D01*
X54149500Y-42121288D01*
X54181161Y-42361785D01*
X54243947Y-42596104D01*
X54336773Y-42820205D01*
X54336776Y-42820212D01*
X54458064Y-43030289D01*
X54458066Y-43030292D01*
X54458067Y-43030293D01*
X54605733Y-43222736D01*
X54605739Y-43222743D01*
X54777256Y-43394260D01*
X54777262Y-43394265D01*
X54969711Y-43541936D01*
X55179788Y-43663224D01*
X55403900Y-43756054D01*
X55638211Y-43818838D01*
X55818586Y-43842584D01*
X55878711Y-43850500D01*
X55878712Y-43850500D01*
X56121289Y-43850500D01*
X56169388Y-43844167D01*
X56361789Y-43818838D01*
X56596100Y-43756054D01*
X56820212Y-43663224D01*
X57030289Y-43541936D01*
X57222738Y-43394265D01*
X57394265Y-43222738D01*
X57541936Y-43030289D01*
X57663224Y-42820212D01*
X57756054Y-42596100D01*
X57818838Y-42361789D01*
X57850500Y-42121288D01*
X57850500Y-41878712D01*
X57818838Y-41638211D01*
X57756054Y-41403900D01*
X57663224Y-41179788D01*
X57541936Y-40969711D01*
X57394265Y-40777262D01*
X57394260Y-40777256D01*
X57222743Y-40605739D01*
X57222736Y-40605733D01*
X57030293Y-40458067D01*
X57030292Y-40458066D01*
X57030289Y-40458064D01*
X56820212Y-40336776D01*
X56820205Y-40336773D01*
X56596104Y-40243947D01*
X56361785Y-40181161D01*
X56121289Y-40149500D01*
X56121288Y-40149500D01*
X55878712Y-40149500D01*
X55878711Y-40149500D01*
X55638214Y-40181161D01*
X55403895Y-40243947D01*
X55179794Y-40336773D01*
X55179785Y-40336777D01*
X54969706Y-40458067D01*
X54777263Y-40605733D01*
X54777256Y-40605739D01*
X54605739Y-40777256D01*
X54605733Y-40777263D01*
X54458067Y-40969706D01*
X54336777Y-41179785D01*
X54336773Y-41179794D01*
X54243947Y-41403895D01*
X54181161Y-41638214D01*
X54149500Y-41878711D01*
X5850500Y-41878711D01*
X5818838Y-41638211D01*
X5756054Y-41403900D01*
X5663224Y-41179788D01*
X5541936Y-40969711D01*
X5394265Y-40777262D01*
X5394260Y-40777256D01*
X5222743Y-40605739D01*
X5222736Y-40605733D01*
X5030293Y-40458067D01*
X5030292Y-40458066D01*
X5030289Y-40458064D01*
X4820212Y-40336776D01*
X4820205Y-40336773D01*
X4596104Y-40243947D01*
X4361785Y-40181161D01*
X4121289Y-40149500D01*
X4121288Y-40149500D01*
X3878712Y-40149500D01*
X3878711Y-40149500D01*
X3638214Y-40181161D01*
X3403895Y-40243947D01*
X3179794Y-40336773D01*
X3179785Y-40336777D01*
X2969706Y-40458067D01*
X2777263Y-40605733D01*
X2777256Y-40605739D01*
X2605739Y-40777256D01*
X2605733Y-40777263D01*
X2458067Y-40969706D01*
X2336777Y-41179785D01*
X2336773Y-41179794D01*
X2243947Y-41403895D01*
X2181161Y-41638214D01*
X2149500Y-41878711D01*
X500500Y-41878711D01*
X500500Y-26453389D01*
X47899500Y-26453389D01*
X47899500Y-26626611D01*
X47926598Y-26797701D01*
X47980127Y-26962445D01*
X48058768Y-27116788D01*
X48160586Y-27256928D01*
X48283072Y-27379414D01*
X48423212Y-27481232D01*
X48577555Y-27559873D01*
X48742299Y-27613402D01*
X48913389Y-27640500D01*
X48913390Y-27640500D01*
X49086610Y-27640500D01*
X49086611Y-27640500D01*
X49257701Y-27613402D01*
X49422445Y-27559873D01*
X49576788Y-27481232D01*
X49716928Y-27379414D01*
X49839414Y-27256928D01*
X49941232Y-27116788D01*
X50019873Y-26962445D01*
X50073402Y-26797701D01*
X50100500Y-26626611D01*
X50100500Y-26453389D01*
X50073402Y-26282299D01*
X50019873Y-26117555D01*
X49997369Y-26073389D01*
X55899500Y-26073389D01*
X55899500Y-26246610D01*
X55926597Y-26417697D01*
X55980128Y-26582447D01*
X56058768Y-26736788D01*
X56160586Y-26876928D01*
X56283072Y-26999414D01*
X56423212Y-27101232D01*
X56577555Y-27179873D01*
X56742299Y-27233402D01*
X56913389Y-27260500D01*
X56913390Y-27260500D01*
X57086610Y-27260500D01*
X57086611Y-27260500D01*
X57257701Y-27233402D01*
X57422445Y-27179873D01*
X57576788Y-27101232D01*
X57716928Y-26999414D01*
X57839414Y-26876928D01*
X57941232Y-26736788D01*
X58019873Y-26582445D01*
X58073402Y-26417701D01*
X58100500Y-26246611D01*
X58100500Y-26073389D01*
X58073402Y-25902299D01*
X58019873Y-25737555D01*
X57941232Y-25583212D01*
X57839414Y-25443072D01*
X57716928Y-25320586D01*
X57576788Y-25218768D01*
X57422445Y-25140127D01*
X57257701Y-25086598D01*
X57257699Y-25086597D01*
X57257698Y-25086597D01*
X57126271Y-25065781D01*
X57086611Y-25059500D01*
X56913389Y-25059500D01*
X56873728Y-25065781D01*
X56742302Y-25086597D01*
X56577552Y-25140128D01*
X56423211Y-25218768D01*
X56343256Y-25276859D01*
X56283072Y-25320586D01*
X56283070Y-25320588D01*
X56283069Y-25320588D01*
X56160588Y-25443069D01*
X56160588Y-25443070D01*
X56160586Y-25443072D01*
X56116859Y-25503256D01*
X56058768Y-25583211D01*
X55980128Y-25737552D01*
X55926597Y-25902302D01*
X55899500Y-26073389D01*
X49997369Y-26073389D01*
X49941232Y-25963212D01*
X49839414Y-25823072D01*
X49716928Y-25700586D01*
X49576788Y-25598768D01*
X49422445Y-25520127D01*
X49257701Y-25466598D01*
X49257699Y-25466597D01*
X49257698Y-25466597D01*
X49126271Y-25445781D01*
X49086611Y-25439500D01*
X48913389Y-25439500D01*
X48873728Y-25445781D01*
X48742302Y-25466597D01*
X48577552Y-25520128D01*
X48423211Y-25598768D01*
X48343256Y-25656859D01*
X48283072Y-25700586D01*
X48283070Y-25700588D01*
X48283069Y-25700588D01*
X48160588Y-25823069D01*
X48160588Y-25823070D01*
X48160586Y-25823072D01*
X48116859Y-25883256D01*
X48058768Y-25963211D01*
X47980128Y-26117552D01*
X47926597Y-26282302D01*
X47905153Y-26417697D01*
X47899500Y-26453389D01*
X500500Y-26453389D01*
X500500Y-21375321D01*
X6599500Y-21375321D01*
X6599500Y-23624678D01*
X6614032Y-23697735D01*
X6614033Y-23697739D01*
X6614034Y-23697740D01*
X6669399Y-23780601D01*
X6731614Y-23822171D01*
X6752260Y-23835966D01*
X6752264Y-23835967D01*
X6825321Y-23850499D01*
X6825324Y-23850500D01*
X6825326Y-23850500D01*
X8674676Y-23850500D01*
X8674677Y-23850499D01*
X8747740Y-23835966D01*
X8830601Y-23780601D01*
X8885966Y-23697740D01*
X8900500Y-23624674D01*
X8900500Y-21375326D01*
X8900500Y-21375323D01*
X8900499Y-21375321D01*
X8885967Y-21302264D01*
X8885966Y-21302260D01*
X8830601Y-21219399D01*
X8751597Y-21166611D01*
X8747739Y-21164033D01*
X8747735Y-21164032D01*
X8674677Y-21149500D01*
X8674674Y-21149500D01*
X6825326Y-21149500D01*
X6825323Y-21149500D01*
X6752264Y-21164032D01*
X6752260Y-21164033D01*
X6669399Y-21219399D01*
X6614033Y-21302260D01*
X6614032Y-21302264D01*
X6599500Y-21375321D01*
X500500Y-21375321D01*
X500500Y-9800000D01*
X9500000Y-9800000D01*
X9500000Y-19800000D01*
X11576000Y-19800000D01*
X11643039Y-19819685D01*
X11688794Y-19872489D01*
X11700000Y-19924000D01*
X11700000Y-20375500D01*
X11680315Y-20442539D01*
X11627511Y-20488294D01*
X11576000Y-20499500D01*
X11325564Y-20499500D01*
X11277812Y-20512295D01*
X11277811Y-20512294D01*
X11230066Y-20525088D01*
X11230059Y-20525091D01*
X11173256Y-20557887D01*
X11111256Y-20574500D01*
X11052525Y-20574500D01*
X10923993Y-20608940D01*
X10912511Y-20612017D01*
X10786988Y-20684488D01*
X10786982Y-20684493D01*
X10684493Y-20786982D01*
X10684488Y-20786988D01*
X10612017Y-20912511D01*
X10612016Y-20912515D01*
X10574500Y-21052525D01*
X10574500Y-21197475D01*
X10612016Y-21337485D01*
X10612017Y-21337488D01*
X10684488Y-21463011D01*
X10684490Y-21463013D01*
X10684491Y-21463015D01*
X10786985Y-21565509D01*
X10786986Y-21565510D01*
X10786988Y-21565511D01*
X10912511Y-21637982D01*
X10912512Y-21637982D01*
X10912515Y-21637984D01*
X11052525Y-21675500D01*
X11052528Y-21675500D01*
X11197472Y-21675500D01*
X11197475Y-21675500D01*
X11337485Y-21637984D01*
X11463015Y-21565509D01*
X11488319Y-21540205D01*
X11549642Y-21506720D01*
X11619334Y-21511704D01*
X11675267Y-21553576D01*
X11699684Y-21619040D01*
X11700000Y-21627886D01*
X11700000Y-22198225D01*
X11699618Y-22207948D01*
X11699500Y-22209448D01*
X11699500Y-22790549D01*
X11699617Y-22792035D01*
X11700000Y-22801769D01*
X11700000Y-23500000D01*
X11971584Y-23500000D01*
X12038623Y-23519685D01*
X12059265Y-23536319D01*
X12100500Y-23577554D01*
X12100505Y-23577558D01*
X12165361Y-23624678D01*
X12247006Y-23683996D01*
X12352484Y-23737740D01*
X12408360Y-23766211D01*
X12408363Y-23766212D01*
X12494476Y-23794191D01*
X12580591Y-23822171D01*
X12663429Y-23835291D01*
X12759449Y-23850500D01*
X12759454Y-23850500D01*
X12940551Y-23850500D01*
X13032310Y-23835966D01*
X13119409Y-23822171D01*
X13291639Y-23766211D01*
X13452994Y-23683996D01*
X13599501Y-23577553D01*
X13640735Y-23536319D01*
X13702058Y-23502834D01*
X13728416Y-23500000D01*
X14000000Y-23500000D01*
X14000000Y-23125321D01*
X47899500Y-23125321D01*
X47899500Y-24874678D01*
X47914032Y-24947735D01*
X47914033Y-24947739D01*
X47914034Y-24947740D01*
X47969399Y-25030601D01*
X48052260Y-25085966D01*
X48052264Y-25085967D01*
X48125321Y-25100499D01*
X48125324Y-25100500D01*
X48125326Y-25100500D01*
X49874676Y-25100500D01*
X49874677Y-25100499D01*
X49947740Y-25085966D01*
X50030601Y-25030601D01*
X50085966Y-24947740D01*
X50100500Y-24874674D01*
X50100500Y-23125326D01*
X50100500Y-23125323D01*
X50100499Y-23125321D01*
X50085967Y-23052264D01*
X50085966Y-23052260D01*
X50030601Y-22969399D01*
X49947740Y-22914034D01*
X49947739Y-22914033D01*
X49947735Y-22914032D01*
X49874677Y-22899500D01*
X49874674Y-22899500D01*
X48125326Y-22899500D01*
X48125323Y-22899500D01*
X48052264Y-22914032D01*
X48052260Y-22914033D01*
X47969399Y-22969399D01*
X47914033Y-23052260D01*
X47914032Y-23052264D01*
X47899500Y-23125321D01*
X14000000Y-23125321D01*
X14000000Y-22801769D01*
X14000383Y-22792035D01*
X14000500Y-22790549D01*
X14000500Y-22209448D01*
X14000382Y-22207948D01*
X14000000Y-22198225D01*
X14000000Y-21927525D01*
X45824500Y-21927525D01*
X45824500Y-22072475D01*
X45861202Y-22209448D01*
X45862017Y-22212488D01*
X45934488Y-22338011D01*
X45934490Y-22338013D01*
X45934491Y-22338015D01*
X46036985Y-22440509D01*
X46036986Y-22440510D01*
X46036988Y-22440511D01*
X46162511Y-22512982D01*
X46162512Y-22512982D01*
X46162515Y-22512984D01*
X46302525Y-22550500D01*
X46302528Y-22550500D01*
X46447472Y-22550500D01*
X46447475Y-22550500D01*
X46587485Y-22512984D01*
X46713015Y-22440509D01*
X46815509Y-22338015D01*
X46887984Y-22212485D01*
X46925500Y-22072475D01*
X46925500Y-22031899D01*
X46945185Y-21964860D01*
X46961819Y-21944218D01*
X47369219Y-21536819D01*
X47430542Y-21503334D01*
X47456900Y-21500500D01*
X55903148Y-21500500D01*
X55970187Y-21520185D01*
X56013633Y-21568205D01*
X56058768Y-21656788D01*
X56160586Y-21796928D01*
X56283072Y-21919414D01*
X56423212Y-22021232D01*
X56577555Y-22099873D01*
X56742299Y-22153402D01*
X56913389Y-22180500D01*
X56913390Y-22180500D01*
X57086610Y-22180500D01*
X57086611Y-22180500D01*
X57257701Y-22153402D01*
X57422445Y-22099873D01*
X57576788Y-22021232D01*
X57716928Y-21919414D01*
X57839414Y-21796928D01*
X57941232Y-21656788D01*
X58019873Y-21502445D01*
X58073402Y-21337701D01*
X58100500Y-21166611D01*
X58100500Y-20993389D01*
X58073402Y-20822299D01*
X58019873Y-20657555D01*
X57941232Y-20503212D01*
X57839414Y-20363072D01*
X57716928Y-20240586D01*
X57576788Y-20138768D01*
X57422445Y-20060127D01*
X57257701Y-20006598D01*
X57257699Y-20006597D01*
X57257698Y-20006597D01*
X57126271Y-19985781D01*
X57086611Y-19979500D01*
X56913389Y-19979500D01*
X56873728Y-19985781D01*
X56742302Y-20006597D01*
X56577552Y-20060128D01*
X56423211Y-20138768D01*
X56343256Y-20196859D01*
X56283072Y-20240586D01*
X56283070Y-20240588D01*
X56283069Y-20240588D01*
X56160588Y-20363069D01*
X56160588Y-20363070D01*
X56160586Y-20363072D01*
X56152283Y-20374500D01*
X56058768Y-20503211D01*
X55980128Y-20657551D01*
X55978091Y-20663822D01*
X55938652Y-20721496D01*
X55874292Y-20748692D01*
X55860161Y-20749500D01*
X47299436Y-20749500D01*
X47200564Y-20749500D01*
X47192007Y-20751793D01*
X47105061Y-20775090D01*
X47062895Y-20799435D01*
X47019438Y-20824524D01*
X47019435Y-20824526D01*
X46430782Y-21413181D01*
X46369459Y-21446666D01*
X46343101Y-21449500D01*
X46302525Y-21449500D01*
X46173993Y-21483940D01*
X46162511Y-21487017D01*
X46036988Y-21559488D01*
X46036982Y-21559493D01*
X45934493Y-21661982D01*
X45934488Y-21661988D01*
X45862017Y-21787511D01*
X45862016Y-21787515D01*
X45824500Y-21927525D01*
X14000000Y-21927525D01*
X14000000Y-21249500D01*
X14019685Y-21182461D01*
X14072489Y-21136706D01*
X14124000Y-21125500D01*
X17299435Y-21125500D01*
X17299436Y-21125500D01*
X17347186Y-21112705D01*
X17394938Y-21099910D01*
X17480562Y-21050475D01*
X17550475Y-20980562D01*
X18819218Y-19711819D01*
X18880541Y-19678334D01*
X18906899Y-19675500D01*
X18947472Y-19675500D01*
X18947475Y-19675500D01*
X19087485Y-19637984D01*
X19213015Y-19565509D01*
X19315509Y-19463015D01*
X19387984Y-19337485D01*
X19425500Y-19197475D01*
X19425500Y-19156899D01*
X19445185Y-19089860D01*
X19461819Y-19069218D01*
X19744050Y-18786988D01*
X20050475Y-18480563D01*
X20075192Y-18437750D01*
X20099910Y-18394938D01*
X20125500Y-18299435D01*
X20125500Y-17829386D01*
X20145185Y-17762347D01*
X20161819Y-17741705D01*
X20190509Y-17713015D01*
X20262984Y-17587485D01*
X20300500Y-17447475D01*
X20300500Y-17302525D01*
X20262984Y-17162515D01*
X20218788Y-17085966D01*
X20190511Y-17036988D01*
X20190506Y-17036982D01*
X20088017Y-16934493D01*
X20088011Y-16934488D01*
X19962488Y-16862017D01*
X19962489Y-16862017D01*
X19951006Y-16858940D01*
X19822475Y-16824500D01*
X19677525Y-16824500D01*
X19548993Y-16858940D01*
X19537511Y-16862017D01*
X19411988Y-16934488D01*
X19411982Y-16934493D01*
X19309493Y-17036982D01*
X19309488Y-17036988D01*
X19237017Y-17162511D01*
X19237016Y-17162515D01*
X19199500Y-17302525D01*
X19199500Y-17447475D01*
X19237016Y-17587485D01*
X19237017Y-17587488D01*
X19309488Y-17713011D01*
X19309493Y-17713017D01*
X19338181Y-17741705D01*
X19352884Y-17768632D01*
X19369477Y-17794451D01*
X19370368Y-17800651D01*
X19371666Y-17803028D01*
X19374500Y-17829386D01*
X19374500Y-18043100D01*
X19354815Y-18110139D01*
X19338181Y-18130781D01*
X18930782Y-18538181D01*
X18869459Y-18571666D01*
X18843101Y-18574500D01*
X18802525Y-18574500D01*
X18673993Y-18608940D01*
X18662511Y-18612017D01*
X18536988Y-18684488D01*
X18536982Y-18684493D01*
X18434493Y-18786982D01*
X18434488Y-18786988D01*
X18362017Y-18912511D01*
X18362016Y-18912515D01*
X18324500Y-19052525D01*
X18324500Y-19052527D01*
X18324500Y-19093101D01*
X18304815Y-19160140D01*
X18288181Y-19180782D01*
X17130782Y-20338181D01*
X17103854Y-20352884D01*
X17078036Y-20369477D01*
X17071835Y-20370368D01*
X17069459Y-20371666D01*
X17043101Y-20374500D01*
X16924000Y-20374500D01*
X16856961Y-20354815D01*
X16811206Y-20302011D01*
X16800000Y-20250500D01*
X16800000Y-19800000D01*
X14124000Y-19800000D01*
X14056961Y-19780315D01*
X14011206Y-19727511D01*
X14000000Y-19676000D01*
X14000000Y-19082399D01*
X14019685Y-19015360D01*
X14036319Y-18994718D01*
X17853512Y-15177525D01*
X43449500Y-15177525D01*
X43449500Y-15322475D01*
X43458366Y-15355562D01*
X43487017Y-15462488D01*
X43559488Y-15588011D01*
X43559490Y-15588013D01*
X43559491Y-15588015D01*
X43661985Y-15690509D01*
X43661986Y-15690510D01*
X43661988Y-15690511D01*
X43787511Y-15762982D01*
X43787512Y-15762982D01*
X43787515Y-15762984D01*
X43927525Y-15800500D01*
X43927528Y-15800500D01*
X44072472Y-15800500D01*
X44072475Y-15800500D01*
X44212485Y-15762984D01*
X44338015Y-15690509D01*
X44366705Y-15661819D01*
X44428028Y-15628334D01*
X44454386Y-15625500D01*
X48424435Y-15625500D01*
X48424436Y-15625500D01*
X48472186Y-15612705D01*
X48519938Y-15599910D01*
X48605562Y-15550475D01*
X48632280Y-15523756D01*
X48648582Y-15515069D01*
X48665436Y-15511581D01*
X48680541Y-15503334D01*
X48706899Y-15500500D01*
X50674435Y-15500500D01*
X50674436Y-15500500D01*
X50722186Y-15487705D01*
X50769938Y-15474910D01*
X50855562Y-15425475D01*
X50925475Y-15355562D01*
X51155716Y-15125321D01*
X55899500Y-15125321D01*
X55899500Y-16874678D01*
X55914032Y-16947735D01*
X55914033Y-16947739D01*
X55914034Y-16947740D01*
X55969399Y-17030601D01*
X56052260Y-17085966D01*
X56052264Y-17085967D01*
X56125321Y-17100499D01*
X56125324Y-17100500D01*
X56125326Y-17100500D01*
X57874676Y-17100500D01*
X57874677Y-17100499D01*
X57947740Y-17085966D01*
X58030601Y-17030601D01*
X58085966Y-16947740D01*
X58100500Y-16874674D01*
X58100500Y-15125326D01*
X58100500Y-15125323D01*
X58100499Y-15125321D01*
X58085967Y-15052264D01*
X58085966Y-15052260D01*
X58072130Y-15031553D01*
X58030601Y-14969399D01*
X57947740Y-14914034D01*
X57947739Y-14914033D01*
X57947735Y-14914032D01*
X57874677Y-14899500D01*
X57874674Y-14899500D01*
X56125326Y-14899500D01*
X56125323Y-14899500D01*
X56052264Y-14914032D01*
X56052260Y-14914033D01*
X55969399Y-14969399D01*
X55914033Y-15052260D01*
X55914032Y-15052264D01*
X55899500Y-15125321D01*
X51155716Y-15125321D01*
X51819218Y-14461819D01*
X51880541Y-14428334D01*
X51906899Y-14425500D01*
X51947472Y-14425500D01*
X51947475Y-14425500D01*
X52087485Y-14387984D01*
X52213015Y-14315509D01*
X52315509Y-14213015D01*
X52387984Y-14087485D01*
X52425500Y-13947475D01*
X52425500Y-13802525D01*
X52387984Y-13662515D01*
X52315509Y-13536985D01*
X52213015Y-13434491D01*
X52213013Y-13434490D01*
X52213011Y-13434488D01*
X52087488Y-13362017D01*
X52087489Y-13362017D01*
X52076006Y-13358940D01*
X51947475Y-13324500D01*
X51802525Y-13324500D01*
X51673993Y-13358940D01*
X51662511Y-13362017D01*
X51536988Y-13434488D01*
X51536982Y-13434493D01*
X51434493Y-13536982D01*
X51434488Y-13536988D01*
X51362017Y-13662511D01*
X51362016Y-13662515D01*
X51324500Y-13802525D01*
X51324500Y-13802527D01*
X51324500Y-13843101D01*
X51304815Y-13910140D01*
X51288181Y-13930782D01*
X50505782Y-14713181D01*
X50444459Y-14746666D01*
X50418101Y-14749500D01*
X48450564Y-14749500D01*
X48355063Y-14775089D01*
X48355060Y-14775090D01*
X48269440Y-14824522D01*
X48269435Y-14824526D01*
X48255781Y-14838181D01*
X48194458Y-14871666D01*
X48168100Y-14874500D01*
X44454386Y-14874500D01*
X44387347Y-14854815D01*
X44366705Y-14838181D01*
X44338017Y-14809493D01*
X44338011Y-14809488D01*
X44212488Y-14737017D01*
X44212489Y-14737017D01*
X44201006Y-14733940D01*
X44072475Y-14699500D01*
X43927525Y-14699500D01*
X43798993Y-14733940D01*
X43787511Y-14737017D01*
X43661988Y-14809488D01*
X43661982Y-14809493D01*
X43559493Y-14911982D01*
X43559488Y-14911988D01*
X43487017Y-15037511D01*
X43487016Y-15037515D01*
X43449500Y-15177525D01*
X17853512Y-15177525D01*
X17949320Y-15081717D01*
X18818026Y-14213011D01*
X19925474Y-13105563D01*
X19925475Y-13105562D01*
X19974910Y-13019938D01*
X20000500Y-12924435D01*
X20000500Y-7396204D01*
X20020185Y-7329165D01*
X20072989Y-7283410D01*
X20142147Y-7273466D01*
X20205703Y-7302491D01*
X20212181Y-7308523D01*
X20283072Y-7379414D01*
X20423212Y-7481232D01*
X20577555Y-7559873D01*
X20742299Y-7613402D01*
X20913389Y-7640500D01*
X20913390Y-7640500D01*
X21086610Y-7640500D01*
X21086611Y-7640500D01*
X21257701Y-7613402D01*
X21422445Y-7559873D01*
X21576788Y-7481232D01*
X21716928Y-7379414D01*
X21839414Y-7256928D01*
X21941232Y-7116788D01*
X22019873Y-6962445D01*
X22073402Y-6797701D01*
X22100500Y-6626611D01*
X22100500Y-6453389D01*
X22073402Y-6282299D01*
X22019873Y-6117555D01*
X21941232Y-5963212D01*
X21839414Y-5823072D01*
X21716928Y-5700586D01*
X21576788Y-5598768D01*
X21422445Y-5520127D01*
X21257701Y-5466598D01*
X21257699Y-5466597D01*
X21257698Y-5466597D01*
X21126271Y-5445781D01*
X21086611Y-5439500D01*
X20913389Y-5439500D01*
X20873728Y-5445781D01*
X20742302Y-5466597D01*
X20577552Y-5520128D01*
X20423211Y-5598768D01*
X20343256Y-5656859D01*
X20283072Y-5700586D01*
X20283070Y-5700588D01*
X20283069Y-5700588D01*
X20212181Y-5771477D01*
X20150858Y-5804962D01*
X20081166Y-5799978D01*
X20025233Y-5758106D01*
X20000816Y-5692642D01*
X20000500Y-5683796D01*
X20000500Y-5331899D01*
X20009144Y-5302458D01*
X20015668Y-5272472D01*
X20019422Y-5267456D01*
X20020185Y-5264860D01*
X20036819Y-5244218D01*
X20144218Y-5136819D01*
X20205541Y-5103334D01*
X20231899Y-5100500D01*
X21874676Y-5100500D01*
X21874677Y-5100499D01*
X21947740Y-5085966D01*
X22030601Y-5030601D01*
X22085966Y-4947740D01*
X22100500Y-4874674D01*
X22100500Y-3878711D01*
X54149500Y-3878711D01*
X54149500Y-4121288D01*
X54181161Y-4361785D01*
X54243947Y-4596104D01*
X54336773Y-4820205D01*
X54336776Y-4820212D01*
X54458064Y-5030289D01*
X54458066Y-5030292D01*
X54458067Y-5030293D01*
X54605733Y-5222736D01*
X54605739Y-5222743D01*
X54777256Y-5394260D01*
X54777263Y-5394266D01*
X54871527Y-5466597D01*
X54969711Y-5541936D01*
X55179788Y-5663224D01*
X55403900Y-5756054D01*
X55638211Y-5818838D01*
X55818586Y-5842584D01*
X55878711Y-5850500D01*
X55878712Y-5850500D01*
X56121289Y-5850500D01*
X56169388Y-5844167D01*
X56361789Y-5818838D01*
X56596100Y-5756054D01*
X56820212Y-5663224D01*
X57030289Y-5541936D01*
X57222738Y-5394265D01*
X57394265Y-5222738D01*
X57541936Y-5030289D01*
X57663224Y-4820212D01*
X57756054Y-4596100D01*
X57818838Y-4361789D01*
X57850500Y-4121288D01*
X57850500Y-3878712D01*
X57818838Y-3638211D01*
X57756054Y-3403900D01*
X57663224Y-3179788D01*
X57541936Y-2969711D01*
X57394265Y-2777262D01*
X57394260Y-2777256D01*
X57222743Y-2605739D01*
X57222736Y-2605733D01*
X57030293Y-2458067D01*
X57030292Y-2458066D01*
X57030289Y-2458064D01*
X56820212Y-2336776D01*
X56820205Y-2336773D01*
X56596104Y-2243947D01*
X56361785Y-2181161D01*
X56121289Y-2149500D01*
X56121288Y-2149500D01*
X55878712Y-2149500D01*
X55878711Y-2149500D01*
X55638214Y-2181161D01*
X55403895Y-2243947D01*
X55179794Y-2336773D01*
X55179785Y-2336777D01*
X54969706Y-2458067D01*
X54777263Y-2605733D01*
X54777256Y-2605739D01*
X54605739Y-2777256D01*
X54605733Y-2777263D01*
X54458067Y-2969706D01*
X54336777Y-3179785D01*
X54336773Y-3179794D01*
X54243947Y-3403895D01*
X54181161Y-3638214D01*
X54149500Y-3878711D01*
X22100500Y-3878711D01*
X22100500Y-3125326D01*
X22100500Y-3125323D01*
X22100499Y-3125321D01*
X22085967Y-3052264D01*
X22085966Y-3052260D01*
X22030601Y-2969399D01*
X21947740Y-2914034D01*
X21947739Y-2914033D01*
X21947735Y-2914032D01*
X21874677Y-2899500D01*
X21874674Y-2899500D01*
X20125326Y-2899500D01*
X20125323Y-2899500D01*
X20052264Y-2914032D01*
X20052260Y-2914033D01*
X19969399Y-2969399D01*
X19914033Y-3052260D01*
X19914032Y-3052264D01*
X19899500Y-3125321D01*
X19899500Y-4268101D01*
X19879815Y-4335140D01*
X19863181Y-4355782D01*
X19324526Y-4894436D01*
X19275091Y-4980059D01*
X19275091Y-4980060D01*
X19275090Y-4980062D01*
X19249500Y-5075565D01*
X19249500Y-5075567D01*
X19249500Y-12668101D01*
X19229815Y-12735140D01*
X19213181Y-12755782D01*
X14211681Y-17757282D01*
X14150358Y-17790767D01*
X14080666Y-17785783D01*
X14024733Y-17743911D01*
X14000316Y-17678447D01*
X14000000Y-17669601D01*
X14000000Y-9800000D01*
X9500000Y-9800000D01*
X500500Y-9800000D01*
X500500Y-6453389D01*
X11899500Y-6453389D01*
X11899500Y-6626610D01*
X11926597Y-6797697D01*
X11926597Y-6797699D01*
X11926598Y-6797701D01*
X11980127Y-6962445D01*
X12058768Y-7116788D01*
X12160586Y-7256928D01*
X12283072Y-7379414D01*
X12311658Y-7400183D01*
X12416978Y-7476703D01*
X12459643Y-7532034D01*
X12465622Y-7601647D01*
X12437835Y-7654308D01*
X12439438Y-7655539D01*
X12434488Y-7661988D01*
X12362017Y-7787511D01*
X12362016Y-7787515D01*
X12324500Y-7927525D01*
X12324500Y-8072475D01*
X12362016Y-8212485D01*
X12362017Y-8212488D01*
X12434488Y-8338011D01*
X12434490Y-8338013D01*
X12434491Y-8338015D01*
X12536985Y-8440509D01*
X12536986Y-8440510D01*
X12536988Y-8440511D01*
X12662511Y-8512982D01*
X12662512Y-8512982D01*
X12662515Y-8512984D01*
X12802525Y-8550500D01*
X12802528Y-8550500D01*
X12947472Y-8550500D01*
X12947475Y-8550500D01*
X13087485Y-8512984D01*
X13213015Y-8440509D01*
X13241705Y-8411819D01*
X13303028Y-8378334D01*
X13329386Y-8375500D01*
X15549435Y-8375500D01*
X15549436Y-8375500D01*
X15597186Y-8362705D01*
X15644938Y-8349910D01*
X15730562Y-8300475D01*
X15800475Y-8230562D01*
X16443739Y-7587296D01*
X16505060Y-7553813D01*
X16572826Y-7558659D01*
X16572921Y-7558367D01*
X16574101Y-7558750D01*
X16574751Y-7558797D01*
X16577148Y-7559740D01*
X16577550Y-7559870D01*
X16577555Y-7559873D01*
X16742299Y-7613402D01*
X16913389Y-7640500D01*
X16913390Y-7640500D01*
X17086610Y-7640500D01*
X17086611Y-7640500D01*
X17257701Y-7613402D01*
X17422445Y-7559873D01*
X17576788Y-7481232D01*
X17716928Y-7379414D01*
X17839414Y-7256928D01*
X17941232Y-7116788D01*
X18019873Y-6962445D01*
X18073402Y-6797701D01*
X18100500Y-6626611D01*
X18100500Y-6453389D01*
X18073402Y-6282299D01*
X18019873Y-6117555D01*
X17941232Y-5963212D01*
X17839414Y-5823072D01*
X17716928Y-5700586D01*
X17576788Y-5598768D01*
X17422445Y-5520127D01*
X17257701Y-5466598D01*
X17257699Y-5466597D01*
X17257698Y-5466597D01*
X17126271Y-5445781D01*
X17086611Y-5439500D01*
X16913389Y-5439500D01*
X16873728Y-5445781D01*
X16742302Y-5466597D01*
X16577552Y-5520128D01*
X16423211Y-5598768D01*
X16343256Y-5656859D01*
X16283072Y-5700586D01*
X16283070Y-5700588D01*
X16283069Y-5700588D01*
X16160588Y-5823069D01*
X16160588Y-5823070D01*
X16160586Y-5823072D01*
X16116859Y-5883256D01*
X16058768Y-5963211D01*
X15980128Y-6117552D01*
X15926597Y-6282302D01*
X15899500Y-6453389D01*
X15899500Y-6626610D01*
X15926597Y-6797698D01*
X15963117Y-6910095D01*
X15965112Y-6979936D01*
X15932867Y-7036094D01*
X15380782Y-7588181D01*
X15319459Y-7621666D01*
X15293101Y-7624500D01*
X13761229Y-7624500D01*
X13694190Y-7604815D01*
X13648435Y-7552011D01*
X13638491Y-7482853D01*
X13667516Y-7419297D01*
X13688343Y-7400183D01*
X13699684Y-7391941D01*
X13716928Y-7379414D01*
X13839414Y-7256928D01*
X13941232Y-7116788D01*
X14019873Y-6962445D01*
X14073402Y-6797701D01*
X14100500Y-6626611D01*
X14100500Y-6453389D01*
X14073402Y-6282299D01*
X14019873Y-6117555D01*
X13941232Y-5963212D01*
X13839414Y-5823072D01*
X13716928Y-5700586D01*
X13576788Y-5598768D01*
X13422445Y-5520127D01*
X13257701Y-5466598D01*
X13257699Y-5466597D01*
X13257698Y-5466597D01*
X13126271Y-5445781D01*
X13086611Y-5439500D01*
X12913389Y-5439500D01*
X12873728Y-5445781D01*
X12742302Y-5466597D01*
X12577552Y-5520128D01*
X12423211Y-5598768D01*
X12343256Y-5656859D01*
X12283072Y-5700586D01*
X12283070Y-5700588D01*
X12283069Y-5700588D01*
X12160588Y-5823069D01*
X12160588Y-5823070D01*
X12160586Y-5823072D01*
X12116859Y-5883256D01*
X12058768Y-5963211D01*
X11980128Y-6117552D01*
X11926597Y-6282302D01*
X11899500Y-6453389D01*
X500500Y-6453389D01*
X500500Y-3878711D01*
X2149500Y-3878711D01*
X2149500Y-4121288D01*
X2181161Y-4361785D01*
X2243947Y-4596104D01*
X2336773Y-4820205D01*
X2336776Y-4820212D01*
X2458064Y-5030289D01*
X2458066Y-5030292D01*
X2458067Y-5030293D01*
X2605733Y-5222736D01*
X2605739Y-5222743D01*
X2777256Y-5394260D01*
X2777263Y-5394266D01*
X2871527Y-5466597D01*
X2969711Y-5541936D01*
X3179788Y-5663224D01*
X3403900Y-5756054D01*
X3638211Y-5818838D01*
X3818586Y-5842584D01*
X3878711Y-5850500D01*
X3878712Y-5850500D01*
X4121289Y-5850500D01*
X4169388Y-5844167D01*
X4361789Y-5818838D01*
X4596100Y-5756054D01*
X4820212Y-5663224D01*
X5030289Y-5541936D01*
X5222738Y-5394265D01*
X5394265Y-5222738D01*
X5541936Y-5030289D01*
X5663224Y-4820212D01*
X5756054Y-4596100D01*
X5818838Y-4361789D01*
X5850500Y-4121288D01*
X5850500Y-3878712D01*
X5818838Y-3638211D01*
X5756054Y-3403900D01*
X5663224Y-3179788D01*
X5631777Y-3125321D01*
X11899500Y-3125321D01*
X11899500Y-4874678D01*
X11914032Y-4947735D01*
X11914033Y-4947739D01*
X11914034Y-4947740D01*
X11969399Y-5030601D01*
X12036694Y-5075565D01*
X12052260Y-5085966D01*
X12052264Y-5085967D01*
X12125321Y-5100499D01*
X12125324Y-5100500D01*
X12125326Y-5100500D01*
X13874676Y-5100500D01*
X13874677Y-5100499D01*
X13947740Y-5085966D01*
X14030601Y-5030601D01*
X14085966Y-4947740D01*
X14100500Y-4874674D01*
X14100500Y-3125326D01*
X14100500Y-3125323D01*
X14100499Y-3125321D01*
X15899500Y-3125321D01*
X15899500Y-4874678D01*
X15914032Y-4947735D01*
X15914033Y-4947739D01*
X15914034Y-4947740D01*
X15969399Y-5030601D01*
X16036694Y-5075565D01*
X16052260Y-5085966D01*
X16052264Y-5085967D01*
X16125321Y-5100499D01*
X16125324Y-5100500D01*
X16125326Y-5100500D01*
X17874676Y-5100500D01*
X17874677Y-5100499D01*
X17947740Y-5085966D01*
X18030601Y-5030601D01*
X18085966Y-4947740D01*
X18100500Y-4874674D01*
X18100500Y-3125326D01*
X18100500Y-3125323D01*
X18100499Y-3125321D01*
X18085967Y-3052264D01*
X18085966Y-3052260D01*
X18030601Y-2969399D01*
X17947740Y-2914034D01*
X17947739Y-2914033D01*
X17947735Y-2914032D01*
X17874677Y-2899500D01*
X17874674Y-2899500D01*
X16125326Y-2899500D01*
X16125323Y-2899500D01*
X16052264Y-2914032D01*
X16052260Y-2914033D01*
X15969399Y-2969399D01*
X15914033Y-3052260D01*
X15914032Y-3052264D01*
X15899500Y-3125321D01*
X14100499Y-3125321D01*
X14085967Y-3052264D01*
X14085966Y-3052260D01*
X14030601Y-2969399D01*
X13947740Y-2914034D01*
X13947739Y-2914033D01*
X13947735Y-2914032D01*
X13874677Y-2899500D01*
X13874674Y-2899500D01*
X12125326Y-2899500D01*
X12125323Y-2899500D01*
X12052264Y-2914032D01*
X12052260Y-2914033D01*
X11969399Y-2969399D01*
X11914033Y-3052260D01*
X11914032Y-3052264D01*
X11899500Y-3125321D01*
X5631777Y-3125321D01*
X5541936Y-2969711D01*
X5394265Y-2777262D01*
X5394260Y-2777256D01*
X5222743Y-2605739D01*
X5222736Y-2605733D01*
X5030293Y-2458067D01*
X5030292Y-2458066D01*
X5030289Y-2458064D01*
X4820212Y-2336776D01*
X4820205Y-2336773D01*
X4596104Y-2243947D01*
X4361785Y-2181161D01*
X4121289Y-2149500D01*
X4121288Y-2149500D01*
X3878712Y-2149500D01*
X3878711Y-2149500D01*
X3638214Y-2181161D01*
X3403895Y-2243947D01*
X3179794Y-2336773D01*
X3179785Y-2336777D01*
X2969706Y-2458067D01*
X2777263Y-2605733D01*
X2777256Y-2605739D01*
X2605739Y-2777256D01*
X2605733Y-2777263D01*
X2458067Y-2969706D01*
X2336777Y-3179785D01*
X2336773Y-3179794D01*
X2243947Y-3403895D01*
X2181161Y-3638214D01*
X2149500Y-3878711D01*
X500500Y-3878711D01*
X500500Y-624500D01*
X520185Y-557461D01*
X572989Y-511706D01*
X624500Y-500500D01*
X59375500Y-500500D01*
X59442539Y-520185D01*
G37*
%TD.AperFunction*%
%TD*%
M02*
